<?xml version="1.0" encoding="UTF-8"?>
<svg version="1.1" xmlns="http://www.w3.org/2000/svg" width="59" height="60">
<path d="M0 0 C6.01222601 5.62012432 7.04146617 11.70831624 7.375 19.5625 C7.26402138 24.90427094 6.21567762 27.74139991 3 32 C-3.57812676 38.08476726 -9.42688921 38.61501533 -18.0625 38.37109375 C-23.18748312 37.88808443 -26.50954433 36.83121255 -30 33 C-34.52266188 26.382772 -35.93619617 18.91151689 -35 11 C-33.63852546 6.58104264 -31.77853028 3.6880035 -28.3125 0.625 C-19.45982025 -3.71782403 -8.85248476 -5.02335859 0 0 Z " fill="#A656F5" transform="translate(45,12)"/>
<path d="M0 0 C0.99 0 1.98 0 3 0 C3 1.32 3 2.64 3 4 C4.175625 3.690625 4.175625 3.690625 5.375 3.375 C6.674375 3.189375 6.674375 3.189375 8 3 C10 5 10 5 10.1953125 7.1640625 C10.17210937 7.97617187 10.14890625 8.78828125 10.125 9.625 C10.10695313 10.44226562 10.08890625 11.25953125 10.0703125 12.1015625 C10.03550781 13.04128906 10.03550781 13.04128906 10 14 C9.01 14 8.02 14 7 14 C7 11.36 7 8.72 7 6 C6.01 6.33 5.02 6.66 4 7 C3.67 9.31 3.34 11.62 3 14 C2.01 14 1.02 14 0 14 C0 9.38 0 4.76 0 0 Z " fill="#F5DEFE" transform="translate(26,22)"/>
<path d="M0 0 C0.66 0 1.32 0 2 0 C2 0.66 2 1.32 2 2 C1.34 2 0.68 2 0 2 C-2.40929552 7.63433678 -2.23079831 12.8689111 -2.125 18.875 C-2.11597656 19.84953125 -2.10695313 20.8240625 -2.09765625 21.828125 C-2.07421623 24.21900728 -2.04140442 26.60937261 -2 29 C-5.71222928 25.28777072 -6.12818373 19.58617815 -6.375 14.5 C-6.25681594 8.81731655 -4.00010689 4.00010689 0 0 Z " fill="#7F49B9" transform="translate(16,13)"/>
<path d="M0 0 C-1.73323305 3.93763626 -3.57635059 5.83217659 -7.25390625 8.01171875 C-13.62476051 10.30450129 -22.19069292 10.33871576 -28.58984375 8.08984375 C-30.5 7 -30.5 7 -33 5 C-30.13822943 3.56911472 -28.06624227 4.40008303 -25 5 C-25 5.99 -25 6.98 -25 8 C-22.72886197 7.85899143 -20.45809275 7.71203245 -18.1875 7.5625 C-16.92292969 7.48128906 -15.65835938 7.40007813 -14.35546875 7.31640625 C-11.00818107 7.12815453 -11.00818107 7.12815453 -8 6 C-7.67 5.34 -7.34 4.68 -7 4 C-4.83989616 0.75984424 -3.8842653 0 0 0 Z " fill="#9555D4" transform="translate(49,41)"/>
<path d="M0 0 C4.69215876 6.25621168 4.68229428 13.34442689 4 21 C2.98828125 23.3359375 2.98828125 23.3359375 2 25 C1.67 25 1.34 25 1 25 C0.67 16.75 0.34 8.5 0 0 Z " fill="#7741AB" transform="translate(48,16)"/>
<path d="M0 0 C2 2.1875 2 2.1875 3 4 C0.5625 3.625 0.5625 3.625 -2 3 C-2.33 2.34 -2.66 1.68 -3 1 C-4.32 1 -5.64 1 -7 1 C-7 0.34 -7 -0.32 -7 -1 C-9.20857055 -0.85780436 -11.41684987 -0.71108153 -13.625 -0.5625 C-14.85476562 -0.48128906 -16.08453125 -0.40007813 -17.3515625 -0.31640625 C-20.61532388 -0.03336056 -23.77943859 0.41038953 -27 1 C-20.58150019 -5.41849981 -7.35484907 -4.04094006 0 0 Z " fill="#7340A4" transform="translate(45,12)"/>
<path d="M0 0 C4.83256305 0.41421969 6.82679218 2.46413986 10 6 C7.5625 5.625 7.5625 5.625 5 5 C4.67 4.34 4.34 3.68 4 3 C2.68 3 1.36 3 0 3 C0 2.01 0 1.02 0 0 Z " fill="#7B45B4" transform="translate(38,10)"/>
<path d="M0 0 C0.99 0 1.98 0 3 0 C3 2.64 3 5.28 3 8 C2.34 7.34 1.68 6.68 1 6 C0.34 6.66 -0.32 7.32 -1 8 C-1.04241723 5.66705225 -1.04092937 3.33297433 -1 1 C-0.67 0.67 -0.34 0.34 0 0 Z " fill="#A471DD" transform="translate(30,28)"/>
</svg>
